<svg width="13" height="13" viewBox="0 0 13 13" fill="none" xmlns="http://www.w3.org/2000/svg">
<path d="M1.625 13C1.17812 13 0.795573 12.8409 0.477344 12.5227C0.159115 12.2044 0 11.8219 0 11.375C0 10.9281 0.159115 10.5456 0.477344 10.2273C0.795573 9.90911 1.17812 9.75 1.625 9.75C2.07187 9.75 2.45443 9.90911 2.77266 10.2273C3.09089 10.5456 3.25 10.9281 3.25 11.375C3.25 11.8219 3.09089 12.2044 2.77266 12.5227C2.45443 12.8409 2.07187 13 1.625 13ZM6.5 13C6.05312 13 5.67057 12.8409 5.35234 12.5227C5.03411 12.2044 4.875 11.8219 4.875 11.375C4.875 10.9281 5.03411 10.5456 5.35234 10.2273C5.67057 9.90911 6.05312 9.75 6.5 9.75C6.94687 9.75 7.32943 9.90911 7.64766 10.2273C7.96589 10.5456 8.125 10.9281 8.125 11.375C8.125 11.8219 7.96589 12.2044 7.64766 12.5227C7.32943 12.8409 6.94687 13 6.5 13ZM11.375 13C10.9281 13 10.5456 12.8409 10.2273 12.5227C9.90911 12.2044 9.75 11.8219 9.75 11.375C9.75 10.9281 9.90911 10.5456 10.2273 10.2273C10.5456 9.90911 10.9281 9.75 11.375 9.75C11.8219 9.75 12.2044 9.90911 12.5227 10.2273C12.8409 10.5456 13 10.9281 13 11.375C13 11.8219 12.8409 12.2044 12.5227 12.5227C12.2044 12.8409 11.8219 13 11.375 13ZM1.625 8.125C1.17812 8.125 0.795573 7.96589 0.477344 7.64766C0.159115 7.32943 0 6.94687 0 6.5C0 6.05312 0.159115 5.67057 0.477344 5.35234C0.795573 5.03411 1.17812 4.875 1.625 4.875C2.07187 4.875 2.45443 5.03411 2.77266 5.35234C3.09089 5.67057 3.25 6.05312 3.25 6.5C3.25 6.94687 3.09089 7.32943 2.77266 7.64766C2.45443 7.96589 2.07187 8.125 1.625 8.125ZM6.5 8.125C6.05312 8.125 5.67057 7.96589 5.35234 7.64766C5.03411 7.32943 4.875 6.94687 4.875 6.5C4.875 6.05312 5.03411 5.67057 5.35234 5.35234C5.67057 5.03411 6.05312 4.875 6.5 4.875C6.94687 4.875 7.32943 5.03411 7.64766 5.35234C7.96589 5.67057 8.125 6.05312 8.125 6.5C8.125 6.94687 7.96589 7.32943 7.64766 7.64766C7.32943 7.96589 6.94687 8.125 6.5 8.125ZM11.375 8.125C10.9281 8.125 10.5456 7.96589 10.2273 7.64766C9.90911 7.32943 9.75 6.94687 9.75 6.5C9.75 6.05312 9.90911 5.67057 10.2273 5.35234C10.5456 5.03411 10.9281 4.875 11.375 4.875C11.8219 4.875 12.2044 5.03411 12.5227 5.35234C12.8409 5.67057 13 6.05312 13 6.5C13 6.94687 12.8409 7.32943 12.5227 7.64766C12.2044 7.96589 11.8219 8.125 11.375 8.125ZM1.625 3.25C1.17812 3.25 0.795573 3.09089 0.477344 2.77266C0.159115 2.45443 0 2.07187 0 1.625C0 1.17812 0.159115 0.795573 0.477344 0.477344C0.795573 0.159115 1.17812 0 1.625 0C2.07187 0 2.45443 0.159115 2.77266 0.477344C3.09089 0.795573 3.25 1.17812 3.25 1.625C3.25 2.07187 3.09089 2.45443 2.77266 2.77266C2.45443 3.09089 2.07187 3.25 1.625 3.25ZM6.5 3.25C6.05312 3.25 5.67057 3.09089 5.35234 2.77266C5.03411 2.45443 4.875 2.07187 4.875 1.625C4.875 1.17812 5.03411 0.795573 5.35234 0.477344C5.67057 0.159115 6.05312 0 6.5 0C6.94687 0 7.32943 0.159115 7.64766 0.477344C7.96589 0.795573 8.125 1.17812 8.125 1.625C8.125 2.07187 7.96589 2.45443 7.64766 2.77266C7.32943 3.09089 6.94687 3.25 6.5 3.25ZM11.375 3.25C10.9281 3.25 10.5456 3.09089 10.2273 2.77266C9.90911 2.45443 9.75 2.07187 9.75 1.625C9.75 1.17812 9.90911 0.795573 10.2273 0.477344C10.5456 0.159115 10.9281 0 11.375 0C11.8219 0 12.2044 0.159115 12.5227 0.477344C12.8409 0.795573 13 1.17812 13 1.625C13 2.07187 12.8409 2.45443 12.5227 2.77266C12.2044 3.09089 11.8219 3.25 11.375 3.25Z" fill="#ACACAC"/>
</svg>
